<svg xmlns="http://www.w3.org/2000/svg" xmlns:xlink="http://www.w3.org/1999/xlink" width="40" zoomAndPan="magnify" viewBox="0 0 30 30.000001" height="40" preserveAspectRatio="xMidYMid meet" version="1.0"><defs><clipPath id="id1"><path d="M 0.484375 0 L 29.515625 0 L 29.515625 29.03125 L 0.484375 29.03125 Z M 0.484375 0 " clip-rule="nonzero"/></clipPath><clipPath id="id2"><path d="M 3.386719 2.902344 L 26 2.902344 L 26 26.128906 L 3.386719 26.128906 Z M 3.386719 2.902344 " clip-rule="nonzero"/></clipPath><clipPath id="id3"><path d="M 14 6 L 26.613281 6 L 26.613281 26.128906 L 14 26.128906 Z M 14 6 " clip-rule="nonzero"/></clipPath><clipPath id="id4"><path d="M 25 10 L 26.613281 10 L 26.613281 12 L 25 12 Z M 25 10 " clip-rule="nonzero"/></clipPath></defs><g clip-path="url(#id1)"><path fill="rgb(100%, 100%, 100%)" d="M 0.484375 0 L 29.515625 0 L 29.515625 36.289062 L 0.484375 36.289062 Z M 0.484375 0 " fill-opacity="1" fill-rule="nonzero"/><path fill="rgb(100%, 100%, 100%)" d="M 0.484375 0 L 29.515625 0 L 29.515625 29.03125 L 0.484375 29.03125 Z M 0.484375 0 " fill-opacity="1" fill-rule="nonzero"/><path fill="rgb(32.939148%, 32.939148%, 32.939148%)" d="M 0.484375 0 L 29.515625 0 L 29.515625 29.03125 L 0.484375 29.03125 Z M 0.484375 0 " fill-opacity="1" fill-rule="nonzero"/></g><g clip-path="url(#id2)"><path fill="rgb(0%, 29.019165%, 67.83905%)" d="M 25.726562 10.132812 C 24.65625 7.921875 22.394531 6.394531 19.773438 6.394531 C 17.414062 6.394531 15.34375 7.628906 14.183594 9.492188 C 14.152344 9.53125 14.125 9.570312 14.101562 9.613281 C 14.054688 9.691406 14.007812 9.769531 13.964844 9.851562 L 9.742188 17.160156 C 9.339844 17.855469 9.839844 18.726562 10.644531 18.726562 L 10.648438 18.726562 C 12.179688 18.726562 13.417969 19.96875 13.417969 21.496094 L 13.417969 26.078125 C 7.753906 25.300781 3.386719 20.445312 3.386719 14.570312 C 3.386719 7.882812 9.039062 2.515625 15.828125 2.984375 C 20.285156 3.292969 24.078125 6.175781 25.726562 10.132812 Z M 25.726562 10.132812 " fill-opacity="1" fill-rule="nonzero"/></g><g clip-path="url(#id3)"><path fill="rgb(100%, 34.118652%, 34.118652%)" d="M 16.582031 26.078125 L 16.582031 21.496094 C 16.582031 20.582031 17.027344 19.773438 17.710938 19.269531 C 18.167969 18.925781 18.738281 18.726562 19.351562 18.726562 L 19.355469 18.726562 C 20.15625 18.726562 20.660156 17.855469 20.257812 17.160156 L 15.902344 9.617188 C 15.527344 8.964844 14.621094 8.921875 14.183594 9.492188 C 15.34375 7.628906 17.414062 6.394531 19.773438 6.394531 C 22.394531 6.394531 24.65625 7.921875 25.726562 10.132812 C 25.75 10.183594 25.769531 10.230469 25.792969 10.285156 C 25.96875 10.722656 26.117188 11.175781 26.238281 11.644531 C 26.242188 11.652344 26.242188 11.65625 26.242188 11.664062 C 26.433594 12.386719 26.550781 13.132812 26.59375 13.894531 C 26.941406 20.070312 22.464844 25.277344 16.582031 26.078125 Z M 16.582031 26.078125 " fill-opacity="1" fill-rule="nonzero"/></g><g clip-path="url(#id4)"><path fill="rgb(100%, 34.118652%, 34.118652%)" d="M 26.238281 11.644531 C 26.117188 11.175781 25.96875 10.722656 25.792969 10.285156 C 25.992188 10.714844 26.136719 11.167969 26.238281 11.644531 Z M 26.238281 11.644531 " fill-opacity="1" fill-rule="nonzero"/></g></svg>