<svg xmlns="http://www.w3.org/2000/svg" xmlns:xlink="http://www.w3.org/1999/xlink" width="100" zoomAndPan="magnify" viewBox="0 0 75 44.999999" height="60" preserveAspectRatio="xMidYMid meet" version="1.0"><defs><g><g id="id1"/><g id="id2"/></g><clipPath id="id3"><path d="M 20.132812 17.191406 L 26 17.191406 L 26 23.191406 L 20.132812 23.191406 Z M 20.132812 17.191406 " clip-rule="nonzero"/></clipPath><clipPath id="id4"><path d="M 22 18 L 26.132812 18 L 26.132812 23.191406 L 22 23.191406 Z M 22 18 " clip-rule="nonzero"/></clipPath><clipPath id="id5"><path d="M 25 19 L 26.132812 19 L 26.132812 20 L 25 20 Z M 25 19 " clip-rule="nonzero"/></clipPath></defs><rect x="-7.5" width="90" fill="rgb(100%, 100%, 100%)" y="-4.5" height="53.999999" fill-opacity="1"/><rect x="-7.5" width="90" fill="rgb(100%, 100%, 100%)" y="-4.5" height="53.999999" fill-opacity="1"/><rect x="-7.5" width="90" fill="rgb(100%, 100%, 100%)" y="-4.5" height="53.999999" fill-opacity="1"/><g clip-path="url(#id3)"><path fill="rgb(0%, 29.019165%, 67.83905%)" d="M 25.902344 19.058594 C 25.628906 18.488281 25.042969 18.09375 24.367188 18.09375 C 23.753906 18.09375 23.222656 18.410156 22.921875 18.894531 C 22.914062 18.902344 22.90625 18.914062 22.898438 18.925781 C 22.886719 18.945312 22.875 18.964844 22.863281 18.984375 L 21.773438 20.875 C 21.671875 21.054688 21.800781 21.277344 22.007812 21.277344 C 22.402344 21.277344 22.722656 21.597656 22.722656 21.996094 L 22.722656 23.175781 C 21.261719 22.976562 20.132812 21.722656 20.132812 20.203125 C 20.132812 18.476562 21.59375 17.089844 23.347656 17.210938 C 24.5 17.292969 25.476562 18.035156 25.902344 19.058594 Z M 25.902344 19.058594 " fill-opacity="1" fill-rule="nonzero"/></g><g clip-path="url(#id4)"><path fill="rgb(100%, 34.118652%, 34.118652%)" d="M 23.542969 23.175781 L 23.542969 21.996094 C 23.542969 21.757812 23.65625 21.550781 23.832031 21.417969 C 23.953125 21.328125 24.097656 21.277344 24.257812 21.277344 C 24.464844 21.277344 24.59375 21.054688 24.492188 20.875 L 23.367188 18.925781 C 23.269531 18.757812 23.035156 18.746094 22.921875 18.894531 C 23.222656 18.410156 23.753906 18.09375 24.367188 18.09375 C 25.042969 18.09375 25.628906 18.488281 25.902344 19.058594 C 25.910156 19.070312 25.914062 19.085938 25.921875 19.097656 C 25.964844 19.210938 26.003906 19.328125 26.035156 19.449219 C 26.035156 19.449219 26.035156 19.453125 26.035156 19.453125 C 26.085938 19.640625 26.117188 19.832031 26.128906 20.03125 C 26.21875 21.625 25.0625 22.96875 23.542969 23.175781 Z M 23.542969 23.175781 " fill-opacity="1" fill-rule="nonzero"/></g><g clip-path="url(#id5)"><path fill="rgb(100%, 34.118652%, 34.118652%)" d="M 26.035156 19.449219 C 26.003906 19.328125 25.964844 19.210938 25.921875 19.097656 C 25.972656 19.207031 26.007812 19.328125 26.035156 19.449219 Z M 26.035156 19.449219 " fill-opacity="1" fill-rule="nonzero"/></g><g fill="rgb(0%, 0%, 0%)" fill-opacity="1"><g transform="translate(12.634651, 23.1208)"><g><path d="M 3.390625 0.109375 C 2.796875 0.109375 2.265625 -0.015625 1.796875 -0.265625 C 1.328125 -0.515625 0.957031 -0.863281 0.6875 -1.3125 C 0.414062 -1.757812 0.28125 -2.269531 0.28125 -2.84375 C 0.28125 -3.40625 0.414062 -3.910156 0.6875 -4.359375 C 0.957031 -4.804688 1.328125 -5.15625 1.796875 -5.40625 C 2.265625 -5.664062 2.796875 -5.796875 3.390625 -5.796875 C 3.910156 -5.796875 4.378906 -5.703125 4.796875 -5.515625 C 5.210938 -5.328125 5.5625 -5.0625 5.84375 -4.71875 L 4.8125 -3.796875 C 4.445312 -4.234375 4.003906 -4.453125 3.484375 -4.453125 C 3.171875 -4.453125 2.894531 -4.382812 2.65625 -4.25 C 2.414062 -4.113281 2.226562 -3.921875 2.09375 -3.671875 C 1.957031 -3.429688 1.890625 -3.15625 1.890625 -2.84375 C 1.890625 -2.519531 1.957031 -2.234375 2.09375 -1.984375 C 2.226562 -1.742188 2.414062 -1.554688 2.65625 -1.421875 C 2.894531 -1.285156 3.171875 -1.21875 3.484375 -1.21875 C 4.003906 -1.21875 4.445312 -1.4375 4.8125 -1.875 L 5.84375 -0.953125 C 5.5625 -0.609375 5.210938 -0.34375 4.796875 -0.15625 C 4.378906 0.0195312 3.910156 0.109375 3.390625 0.109375 Z M 3.390625 0.109375 "/></g></g></g><g fill="rgb(0%, 0%, 0%)" fill-opacity="1"><g transform="translate(20.231314, 23.1208)"><g/></g></g><g fill="rgb(0%, 0%, 0%)" fill-opacity="1"><g transform="translate(24.208887, 23.1208)"><g/></g></g><g fill="rgb(0%, 0%, 0%)" fill-opacity="1"><g transform="translate(28.18646, 23.1208)"><g/></g></g><g fill="rgb(0%, 0%, 0%)" fill-opacity="1"><g transform="translate(32.164033, 23.1208)"><g/></g></g><g fill="rgb(0%, 0%, 0%)" fill-opacity="1"><g transform="translate(36.141606, 23.1208)"><g/></g></g><g fill="rgb(0%, 0%, 0%)" fill-opacity="1"><g transform="translate(40.119178, 23.1208)"><g/></g></g><g fill="rgb(0%, 0%, 0%)" fill-opacity="1"><g transform="translate(44.09675, 23.1208)"><g/></g></g><g fill="rgb(0%, 0%, 0%)" fill-opacity="1"><g transform="translate(48.074322, 23.1208)"><g/></g></g><g fill="rgb(0%, 0%, 0%)" fill-opacity="1"><g transform="translate(52.051894, 23.1208)"><g/></g></g><g fill="rgb(0%, 0%, 0%)" fill-opacity="1"><g transform="translate(56.029466, 23.1208)"><g/></g></g><g fill="rgb(0%, 0%, 0%)" fill-opacity="1"><g transform="translate(60.007039, 23.1208)"><g/></g></g><g fill="rgb(65.098572%, 65.098572%, 65.098572%)" fill-opacity="1"><g transform="translate(11.171522, 28.757459)"><g/></g></g><g fill="rgb(65.098572%, 65.098572%, 65.098572%)" fill-opacity="1"><g transform="translate(12.92342, 28.757459)"><g/></g></g><g fill="rgb(65.098572%, 65.098572%, 65.098572%)" fill-opacity="1"><g transform="translate(14.672021, 28.757459)"><g><path d="M 0.34375 -2.578125 L 1.46875 -2.578125 C 1.75 -2.578125 1.992188 -2.523438 2.203125 -2.421875 C 2.421875 -2.316406 2.585938 -2.164062 2.703125 -1.96875 C 2.828125 -1.769531 2.890625 -1.546875 2.890625 -1.296875 C 2.890625 -1.035156 2.828125 -0.804688 2.703125 -0.609375 C 2.585938 -0.421875 2.421875 -0.269531 2.203125 -0.15625 C 1.992188 -0.0507812 1.75 0 1.46875 0 L 0.34375 0 Z M 1.453125 -0.40625 C 1.640625 -0.40625 1.804688 -0.441406 1.953125 -0.515625 C 2.097656 -0.585938 2.207031 -0.691406 2.28125 -0.828125 C 2.363281 -0.960938 2.40625 -1.117188 2.40625 -1.296875 C 2.40625 -1.472656 2.363281 -1.625 2.28125 -1.75 C 2.207031 -1.882812 2.097656 -1.988281 1.953125 -2.0625 C 1.804688 -2.132812 1.640625 -2.171875 1.453125 -2.171875 L 0.828125 -2.171875 L 0.828125 -0.40625 Z M 1.453125 -0.40625 "/></g></g></g><g fill="rgb(65.098572%, 65.098572%, 65.098572%)" fill-opacity="1"><g transform="translate(18.447059, 28.757459)"><g><path d="M 1.234375 -1.078125 L 0.828125 -0.65625 L 0.828125 0 L 0.34375 0 L 0.34375 -2.578125 L 0.828125 -2.578125 L 0.828125 -1.25 L 2.109375 -2.578125 L 2.640625 -2.578125 L 1.5625 -1.421875 L 2.703125 0 L 2.140625 0 Z M 1.234375 -1.078125 "/></g></g></g><g fill="rgb(65.098572%, 65.098572%, 65.098572%)" fill-opacity="1"><g transform="translate(21.86529, 28.757459)"><g/></g></g><g fill="rgb(65.098572%, 65.098572%, 65.098572%)" fill-opacity="1"><g transform="translate(23.617189, 28.757459)"><g><path d="M 0.34375 -2.578125 L 1.46875 -2.578125 C 1.75 -2.578125 1.992188 -2.523438 2.203125 -2.421875 C 2.421875 -2.316406 2.585938 -2.164062 2.703125 -1.96875 C 2.828125 -1.769531 2.890625 -1.546875 2.890625 -1.296875 C 2.890625 -1.035156 2.828125 -0.804688 2.703125 -0.609375 C 2.585938 -0.421875 2.421875 -0.269531 2.203125 -0.15625 C 1.992188 -0.0507812 1.75 0 1.46875 0 L 0.34375 0 Z M 1.453125 -0.40625 C 1.640625 -0.40625 1.804688 -0.441406 1.953125 -0.515625 C 2.097656 -0.585938 2.207031 -0.691406 2.28125 -0.828125 C 2.363281 -0.960938 2.40625 -1.117188 2.40625 -1.296875 C 2.40625 -1.472656 2.363281 -1.625 2.28125 -1.75 C 2.207031 -1.882812 2.097656 -1.988281 1.953125 -2.0625 C 1.804688 -2.132812 1.640625 -2.171875 1.453125 -2.171875 L 0.828125 -2.171875 L 0.828125 -0.40625 Z M 1.453125 -0.40625 "/></g></g></g><g fill="rgb(65.098572%, 65.098572%, 65.098572%)" fill-opacity="1"><g transform="translate(27.392227, 28.757459)"><g><path d="M 2.28125 -0.40625 L 2.28125 0 L 0.34375 0 L 0.34375 -2.578125 L 2.234375 -2.578125 L 2.234375 -2.171875 L 0.828125 -2.171875 L 0.828125 -1.515625 L 2.078125 -1.515625 L 2.078125 -1.109375 L 0.828125 -1.109375 L 0.828125 -0.40625 Z M 2.28125 -0.40625 "/></g></g></g><g fill="rgb(65.098572%, 65.098572%, 65.098572%)" fill-opacity="1"><g transform="translate(30.59343, 28.757459)"><g><path d="M 2.703125 -2.578125 L 1.578125 0 L 1.109375 0 L -0.015625 -2.578125 L 0.5 -2.578125 L 1.359375 -0.59375 L 2.234375 -2.578125 Z M 2.703125 -2.578125 "/></g></g></g><g fill="rgb(65.098572%, 65.098572%, 65.098572%)" fill-opacity="1"><g transform="translate(34.011661, 28.757459)"><g><path d="M 2.28125 -0.40625 L 2.28125 0 L 0.34375 0 L 0.34375 -2.578125 L 2.234375 -2.578125 L 2.234375 -2.171875 L 0.828125 -2.171875 L 0.828125 -1.515625 L 2.078125 -1.515625 L 2.078125 -1.109375 L 0.828125 -1.109375 L 0.828125 -0.40625 Z M 2.28125 -0.40625 "/></g></g></g><g fill="rgb(65.098572%, 65.098572%, 65.098572%)" fill-opacity="1"><g transform="translate(37.212864, 28.757459)"><g><path d="M 0.34375 -2.578125 L 0.828125 -2.578125 L 0.828125 -0.40625 L 2.171875 -0.40625 L 2.171875 0 L 0.34375 0 Z M 0.34375 -2.578125 "/></g></g></g><g fill="rgb(65.098572%, 65.098572%, 65.098572%)" fill-opacity="1"><g transform="translate(40.152897, 28.757459)"><g><path d="M 1.546875 0.03125 C 1.285156 0.03125 1.050781 -0.0234375 0.84375 -0.140625 C 0.632812 -0.253906 0.46875 -0.410156 0.34375 -0.609375 C 0.21875 -0.816406 0.15625 -1.046875 0.15625 -1.296875 C 0.15625 -1.546875 0.21875 -1.769531 0.34375 -1.96875 C 0.46875 -2.175781 0.632812 -2.335938 0.84375 -2.453125 C 1.050781 -2.566406 1.285156 -2.625 1.546875 -2.625 C 1.816406 -2.625 2.054688 -2.566406 2.265625 -2.453125 C 2.472656 -2.335938 2.632812 -2.175781 2.75 -1.96875 C 2.875 -1.769531 2.9375 -1.546875 2.9375 -1.296875 C 2.9375 -1.035156 2.875 -0.804688 2.75 -0.609375 C 2.632812 -0.410156 2.472656 -0.253906 2.265625 -0.140625 C 2.054688 -0.0234375 1.816406 0.03125 1.546875 0.03125 Z M 1.546875 -0.390625 C 1.722656 -0.390625 1.878906 -0.425781 2.015625 -0.5 C 2.148438 -0.570312 2.253906 -0.675781 2.328125 -0.8125 C 2.410156 -0.957031 2.453125 -1.117188 2.453125 -1.296875 C 2.453125 -1.460938 2.410156 -1.613281 2.328125 -1.75 C 2.253906 -1.894531 2.148438 -2.003906 2.015625 -2.078125 C 1.878906 -2.160156 1.722656 -2.203125 1.546875 -2.203125 C 1.378906 -2.203125 1.222656 -2.160156 1.078125 -2.078125 C 0.941406 -2.003906 0.832031 -1.894531 0.75 -1.75 C 0.675781 -1.613281 0.640625 -1.460938 0.640625 -1.296875 C 0.640625 -1.117188 0.675781 -0.957031 0.75 -0.8125 C 0.832031 -0.675781 0.941406 -0.570312 1.078125 -0.5 C 1.222656 -0.425781 1.378906 -0.390625 1.546875 -0.390625 Z M 1.546875 -0.390625 "/></g></g></g><g fill="rgb(65.098572%, 65.098572%, 65.098572%)" fill-opacity="1"><g transform="translate(43.98679, 28.757459)"><g><path d="M 1.40625 -2.578125 C 1.632812 -2.578125 1.828125 -2.539062 1.984375 -2.46875 C 2.148438 -2.394531 2.273438 -2.289062 2.359375 -2.15625 C 2.453125 -2.019531 2.5 -1.851562 2.5 -1.65625 C 2.5 -1.46875 2.453125 -1.304688 2.359375 -1.171875 C 2.273438 -1.035156 2.148438 -0.929688 1.984375 -0.859375 C 1.828125 -0.785156 1.632812 -0.75 1.40625 -0.75 L 0.828125 -0.75 L 0.828125 0 L 0.34375 0 L 0.34375 -2.578125 Z M 1.390625 -1.15625 C 1.597656 -1.15625 1.753906 -1.195312 1.859375 -1.28125 C 1.972656 -1.375 2.03125 -1.5 2.03125 -1.65625 C 2.03125 -1.820312 1.972656 -1.945312 1.859375 -2.03125 C 1.753906 -2.125 1.597656 -2.171875 1.390625 -2.171875 L 0.828125 -2.171875 L 0.828125 -1.15625 Z M 1.390625 -1.15625 "/></g></g></g><g fill="rgb(65.098572%, 65.098572%, 65.098572%)" fill-opacity="1"><g transform="translate(47.393982, 28.757459)"><g><path d="M 2.71875 0 L 2.71875 -1.71875 L 1.859375 -0.296875 L 1.65625 -0.296875 L 0.796875 -1.6875 L 0.796875 0 L 0.34375 0 L 0.34375 -2.578125 L 0.734375 -2.578125 L 1.765625 -0.875 L 2.765625 -2.578125 L 3.171875 -2.578125 L 3.171875 0 Z M 2.71875 0 "/></g></g></g><g fill="rgb(65.098572%, 65.098572%, 65.098572%)" fill-opacity="1"><g transform="translate(51.643538, 28.757459)"><g><path d="M 2.28125 -0.40625 L 2.28125 0 L 0.34375 0 L 0.34375 -2.578125 L 2.234375 -2.578125 L 2.234375 -2.171875 L 0.828125 -2.171875 L 0.828125 -1.515625 L 2.078125 -1.515625 L 2.078125 -1.109375 L 0.828125 -1.109375 L 0.828125 -0.40625 Z M 2.28125 -0.40625 "/></g></g></g><g fill="rgb(65.098572%, 65.098572%, 65.098572%)" fill-opacity="1"><g transform="translate(54.844739, 28.757459)"><g><path d="M 2.640625 -2.578125 L 2.640625 0 L 2.25 0 L 0.828125 -1.75 L 0.828125 0 L 0.34375 0 L 0.34375 -2.578125 L 0.734375 -2.578125 L 2.171875 -0.828125 L 2.171875 -2.578125 Z M 2.640625 -2.578125 "/></g></g></g><g fill="rgb(65.098572%, 65.098572%, 65.098572%)" fill-opacity="1"><g transform="translate(58.560922, 28.757459)"><g><path d="M 0.875 -2.171875 L 0.015625 -2.171875 L 0.015625 -2.578125 L 2.203125 -2.578125 L 2.203125 -2.171875 L 1.34375 -2.171875 L 1.34375 0 L 0.875 0 Z M 0.875 -2.171875 "/></g></g></g><g fill="rgb(65.098572%, 65.098572%, 65.098572%)" fill-opacity="1"><g transform="translate(61.51199, 28.757459)"><g><path d="M 1.140625 0.03125 C 0.941406 0.03125 0.75 0.00390625 0.5625 -0.046875 C 0.382812 -0.0976562 0.238281 -0.171875 0.125 -0.265625 L 0.296875 -0.640625 C 0.398438 -0.554688 0.53125 -0.488281 0.6875 -0.4375 C 0.84375 -0.382812 0.992188 -0.359375 1.140625 -0.359375 C 1.335938 -0.359375 1.484375 -0.390625 1.578125 -0.453125 C 1.671875 -0.515625 1.71875 -0.597656 1.71875 -0.703125 C 1.71875 -0.773438 1.691406 -0.832031 1.640625 -0.875 C 1.585938 -0.925781 1.519531 -0.960938 1.4375 -0.984375 C 1.351562 -1.015625 1.242188 -1.046875 1.109375 -1.078125 C 0.910156 -1.128906 0.75 -1.175781 0.625 -1.21875 C 0.507812 -1.269531 0.40625 -1.34375 0.3125 -1.4375 C 0.226562 -1.539062 0.1875 -1.675781 0.1875 -1.84375 C 0.1875 -1.988281 0.222656 -2.117188 0.296875 -2.234375 C 0.378906 -2.347656 0.5 -2.441406 0.65625 -2.515625 C 0.8125 -2.585938 1 -2.625 1.21875 -2.625 C 1.375 -2.625 1.53125 -2.601562 1.6875 -2.5625 C 1.84375 -2.519531 1.972656 -2.460938 2.078125 -2.390625 L 1.9375 -2.015625 C 1.820312 -2.078125 1.703125 -2.125 1.578125 -2.15625 C 1.453125 -2.195312 1.332031 -2.21875 1.21875 -2.21875 C 1.03125 -2.21875 0.890625 -2.1875 0.796875 -2.125 C 0.703125 -2.0625 0.65625 -1.976562 0.65625 -1.875 C 0.65625 -1.800781 0.679688 -1.738281 0.734375 -1.6875 C 0.785156 -1.644531 0.851562 -1.609375 0.9375 -1.578125 C 1.019531 -1.546875 1.128906 -1.515625 1.265625 -1.484375 C 1.460938 -1.441406 1.617188 -1.394531 1.734375 -1.34375 C 1.859375 -1.300781 1.960938 -1.226562 2.046875 -1.125 C 2.140625 -1.03125 2.1875 -0.898438 2.1875 -0.734375 C 2.1875 -0.585938 2.144531 -0.457031 2.0625 -0.34375 C 1.988281 -0.226562 1.875 -0.132812 1.71875 -0.0625 C 1.5625 0 1.367188 0.03125 1.140625 0.03125 Z M 1.140625 0.03125 "/></g></g></g><g fill="rgb(0%, 0%, 0%)" fill-opacity="1"><g transform="translate(7.142155, 23.1208)"><g/></g></g><g fill="rgb(0%, 0%, 0%)" fill-opacity="1"><g transform="translate(11.119728, 23.1208)"><g/></g></g><g fill="rgb(0%, 0%, 0%)" fill-opacity="1"><g transform="translate(15.097301, 23.1208)"><g/></g></g><g fill="rgb(0%, 0%, 0%)" fill-opacity="1"><g transform="translate(19.074874, 23.1208)"><g/></g></g><g fill="rgb(0%, 0%, 0%)" fill-opacity="1"><g transform="translate(23.052447, 23.1208)"><g/></g></g><g fill="rgb(0%, 0%, 0%)" fill-opacity="1"><g transform="translate(27.027311, 23.1208)"><g><path d="M 3.1875 0.109375 C 2.34375 0.109375 1.6875 -0.117188 1.21875 -0.578125 C 0.75 -1.035156 0.515625 -1.6875 0.515625 -2.53125 L 0.515625 -5.671875 L 2.125 -5.671875 L 2.125 -2.578125 C 2.125 -1.671875 2.484375 -1.21875 3.203125 -1.21875 C 3.921875 -1.21875 4.28125 -1.671875 4.28125 -2.578125 L 4.28125 -5.671875 L 5.859375 -5.671875 L 5.859375 -2.53125 C 5.859375 -1.6875 5.625 -1.035156 5.15625 -0.578125 C 4.6875 -0.117188 4.03125 0.109375 3.1875 0.109375 Z M 3.1875 0.109375 "/></g></g></g><g fill="rgb(0%, 0%, 0%)" fill-opacity="1"><g transform="translate(35.014125, 23.1208)"><g><path d="M 5.96875 -5.671875 L 5.96875 0 L 4.640625 0 L 2.140625 -3.03125 L 2.140625 0 L 0.5625 0 L 0.5625 -5.671875 L 1.890625 -5.671875 L 4.390625 -2.65625 L 4.390625 -5.671875 Z M 5.96875 -5.671875 "/></g></g></g><g fill="rgb(0%, 0%, 0%)" fill-opacity="1"><g transform="translate(43.162928, 23.1208)"><g><path d="M 1.78125 -4.40625 L 0.03125 -4.40625 L 0.03125 -5.671875 L 5.109375 -5.671875 L 5.109375 -4.40625 L 3.375 -4.40625 L 3.375 0 L 1.78125 0 Z M 1.78125 -4.40625 "/></g></g></g><g fill="rgb(0%, 0%, 0%)" fill-opacity="1"><g transform="translate(49.926721, 23.1208)"><g/></g></g><g fill="rgb(0%, 0%, 0%)" fill-opacity="1"><g transform="translate(53.904294, 23.1208)"><g><path d="M 3.1875 0.109375 C 2.34375 0.109375 1.6875 -0.117188 1.21875 -0.578125 C 0.75 -1.035156 0.515625 -1.6875 0.515625 -2.53125 L 0.515625 -5.671875 L 2.125 -5.671875 L 2.125 -2.578125 C 2.125 -1.671875 2.484375 -1.21875 3.203125 -1.21875 C 3.921875 -1.21875 4.28125 -1.671875 4.28125 -2.578125 L 4.28125 -5.671875 L 5.859375 -5.671875 L 5.859375 -2.53125 C 5.859375 -1.6875 5.625 -1.035156 5.15625 -0.578125 C 4.6875 -0.117188 4.03125 0.109375 3.1875 0.109375 Z M 3.1875 0.109375 "/></g></g></g><g fill="rgb(0%, 0%, 0%)" fill-opacity="1"><g transform="translate(61.891107, 23.1208)"><g><path d="M 3.15625 -5.671875 C 3.675781 -5.671875 4.125 -5.585938 4.5 -5.421875 C 4.875 -5.253906 5.164062 -5.007812 5.375 -4.6875 C 5.582031 -4.375 5.6875 -4.003906 5.6875 -3.578125 C 5.6875 -3.148438 5.582031 -2.78125 5.375 -2.46875 C 5.164062 -2.15625 4.875 -1.910156 4.5 -1.734375 C 4.125 -1.566406 3.675781 -1.484375 3.15625 -1.484375 L 2.171875 -1.484375 L 2.171875 0 L 0.5625 0 L 0.5625 -5.671875 Z M 3.0625 -2.75 C 3.394531 -2.75 3.644531 -2.816406 3.8125 -2.953125 C 3.976562 -3.097656 4.0625 -3.304688 4.0625 -3.578125 C 4.0625 -3.835938 3.976562 -4.039062 3.8125 -4.1875 C 3.644531 -4.332031 3.394531 -4.40625 3.0625 -4.40625 L 2.171875 -4.40625 L 2.171875 -2.75 Z M 3.0625 -2.75 "/></g></g></g><g fill="rgb(65.098572%, 65.098572%, 65.098572%)" fill-opacity="1"><g transform="translate(37.868146, 28.757459)"><g/></g></g></svg>