<svg xmlns="http://www.w3.org/2000/svg" xmlns:xlink="http://www.w3.org/1999/xlink" width="100" zoomAndPan="magnify" viewBox="0 0 75 30.000001" height="40" preserveAspectRatio="xMidYMid meet" version="1.0"><defs><g><g id="id1"/><g id="id2"/></g><clipPath id="id3"><path d="M 22.039062 9.75 L 27 9.75 L 27 14.828125 L 22.039062 14.828125 Z M 22.039062 9.75 " clip-rule="nonzero"/></clipPath><clipPath id="id4"><path d="M 24 10 L 27.117188 10 L 27.117188 14.828125 L 24 14.828125 Z M 24 10 " clip-rule="nonzero"/></clipPath><clipPath id="id5"><path d="M 26 11 L 27.117188 11 L 27.117188 12 L 26 12 Z M 26 11 " clip-rule="nonzero"/></clipPath></defs><g clip-path="url(#id3)"><path fill="rgb(0%, 29.019165%, 67.83905%)" d="M 26.925781 11.332031 C 26.691406 10.847656 26.195312 10.511719 25.621094 10.511719 C 25.105469 10.511719 24.652344 10.78125 24.398438 11.191406 C 24.390625 11.199219 24.386719 11.207031 24.382812 11.21875 C 24.371094 11.234375 24.359375 11.25 24.351562 11.269531 L 23.425781 12.867188 C 23.339844 13.019531 23.449219 13.210938 23.625 13.210938 C 23.960938 13.210938 24.230469 13.480469 24.230469 13.816406 L 24.230469 14.816406 C 22.992188 14.648438 22.039062 13.585938 22.039062 12.300781 C 22.039062 10.839844 23.273438 9.664062 24.757812 9.765625 C 25.734375 9.835938 26.5625 10.464844 26.925781 11.332031 Z M 26.925781 11.332031 " fill-opacity="1" fill-rule="nonzero"/></g><g clip-path="url(#id4)"><path fill="rgb(100%, 34.118652%, 34.118652%)" d="M 24.921875 14.816406 L 24.921875 13.816406 C 24.921875 13.617188 25.019531 13.4375 25.171875 13.328125 C 25.269531 13.253906 25.394531 13.210938 25.53125 13.210938 C 25.707031 13.210938 25.816406 13.019531 25.726562 12.867188 L 24.773438 11.21875 C 24.691406 11.074219 24.496094 11.066406 24.398438 11.191406 C 24.652344 10.78125 25.105469 10.511719 25.621094 10.511719 C 26.195312 10.511719 26.691406 10.847656 26.925781 11.332031 C 26.929688 11.339844 26.933594 11.351562 26.9375 11.363281 C 26.976562 11.460938 27.007812 11.558594 27.035156 11.660156 C 27.035156 11.664062 27.035156 11.664062 27.035156 11.664062 C 27.078125 11.824219 27.105469 11.988281 27.113281 12.152344 C 27.191406 13.503906 26.210938 14.644531 24.921875 14.816406 Z M 24.921875 14.816406 " fill-opacity="1" fill-rule="nonzero"/></g><g clip-path="url(#id5)"><path fill="rgb(100%, 34.118652%, 34.118652%)" d="M 27.035156 11.660156 C 27.007812 11.558594 26.976562 11.460938 26.9375 11.363281 C 26.980469 11.457031 27.015625 11.558594 27.035156 11.660156 Z M 27.035156 11.660156 " fill-opacity="1" fill-rule="nonzero"/></g><g fill="rgb(65.098572%, 65.098572%, 65.098572%)" fill-opacity="1"><g transform="translate(15.355334, 14.869271)"><g><path d="M 3.03125 0.09375 C 2.5 0.09375 2.019531 -0.015625 1.59375 -0.234375 C 1.175781 -0.453125 0.847656 -0.757812 0.609375 -1.15625 C 0.367188 -1.5625 0.25 -2.019531 0.25 -2.53125 C 0.25 -3.03125 0.367188 -3.476562 0.609375 -3.875 C 0.847656 -4.28125 1.175781 -4.59375 1.59375 -4.8125 C 2.019531 -5.039062 2.5 -5.15625 3.03125 -5.15625 C 3.488281 -5.15625 3.898438 -5.070312 4.265625 -4.90625 C 4.640625 -4.738281 4.953125 -4.503906 5.203125 -4.203125 L 4.28125 -3.375 C 3.957031 -3.769531 3.5625 -3.96875 3.09375 -3.96875 C 2.820312 -3.96875 2.578125 -3.90625 2.359375 -3.78125 C 2.148438 -3.664062 1.984375 -3.5 1.859375 -3.28125 C 1.742188 -3.0625 1.6875 -2.8125 1.6875 -2.53125 C 1.6875 -2.238281 1.742188 -1.984375 1.859375 -1.765625 C 1.984375 -1.546875 2.148438 -1.375 2.359375 -1.25 C 2.578125 -1.132812 2.820312 -1.078125 3.09375 -1.078125 C 3.5625 -1.078125 3.957031 -1.273438 4.28125 -1.671875 L 5.203125 -0.859375 C 4.953125 -0.546875 4.640625 -0.304688 4.265625 -0.140625 C 3.898438 0.015625 3.488281 0.09375 3.03125 0.09375 Z M 3.03125 0.09375 "/></g></g></g><g fill="rgb(65.098572%, 65.098572%, 65.098572%)" fill-opacity="1"><g transform="translate(22.118829, 14.869271)"><g/></g></g><g fill="rgb(65.098572%, 65.098572%, 65.098572%)" fill-opacity="1"><g transform="translate(25.661108, 14.869271)"><g/></g></g><g fill="rgb(65.098572%, 65.098572%, 65.098572%)" fill-opacity="1"><g transform="translate(29.203388, 14.869271)"><g/></g></g><g fill="rgb(65.098572%, 65.098572%, 65.098572%)" fill-opacity="1"><g transform="translate(32.745668, 14.869271)"><g/></g></g><g fill="rgb(65.098572%, 65.098572%, 65.098572%)" fill-opacity="1"><g transform="translate(36.287947, 14.869271)"><g/></g></g><g fill="rgb(65.098572%, 65.098572%, 65.098572%)" fill-opacity="1"><g transform="translate(39.830226, 14.869271)"><g/></g></g><g fill="rgb(65.098572%, 65.098572%, 65.098572%)" fill-opacity="1"><g transform="translate(43.372507, 14.869271)"><g/></g></g><g fill="rgb(65.098572%, 65.098572%, 65.098572%)" fill-opacity="1"><g transform="translate(46.914787, 14.869271)"><g/></g></g><g fill="rgb(65.098572%, 65.098572%, 65.098572%)" fill-opacity="1"><g transform="translate(50.457068, 14.869271)"><g/></g></g><g fill="rgb(65.098572%, 65.098572%, 65.098572%)" fill-opacity="1"><g transform="translate(57.541629, 14.869271)"><g/></g></g><g fill="rgb(65.098572%, 65.098572%, 65.098572%)" fill-opacity="1"><g transform="translate(14.059161, 20.208521)"><g/></g></g><g fill="rgb(65.098572%, 65.098572%, 65.098572%)" fill-opacity="1"><g transform="translate(15.618915, 20.208521)"><g/></g></g><g fill="rgb(65.098572%, 65.098572%, 65.098572%)" fill-opacity="1"><g transform="translate(17.175734, 20.208521)"><g><path d="M 0.3125 -2.296875 L 1.3125 -2.296875 C 1.5625 -2.296875 1.78125 -2.25 1.96875 -2.15625 C 2.15625 -2.0625 2.300781 -1.925781 2.40625 -1.75 C 2.507812 -1.570312 2.5625 -1.375 2.5625 -1.15625 C 2.5625 -0.925781 2.507812 -0.722656 2.40625 -0.546875 C 2.300781 -0.367188 2.15625 -0.234375 1.96875 -0.140625 C 1.78125 -0.046875 1.5625 0 1.3125 0 L 0.3125 0 Z M 1.296875 -0.359375 C 1.460938 -0.359375 1.609375 -0.390625 1.734375 -0.453125 C 1.859375 -0.515625 1.957031 -0.601562 2.03125 -0.71875 C 2.101562 -0.84375 2.140625 -0.988281 2.140625 -1.15625 C 2.140625 -1.3125 2.101562 -1.445312 2.03125 -1.5625 C 1.957031 -1.6875 1.859375 -1.78125 1.734375 -1.84375 C 1.609375 -1.90625 1.460938 -1.9375 1.296875 -1.9375 L 0.734375 -1.9375 L 0.734375 -0.359375 Z M 1.296875 -0.359375 "/></g></g></g><g fill="rgb(65.098572%, 65.098572%, 65.098572%)" fill-opacity="1"><g transform="translate(20.536737, 20.208521)"><g><path d="M 1.09375 -0.96875 L 0.734375 -0.59375 L 0.734375 0 L 0.3125 0 L 0.3125 -2.296875 L 0.734375 -2.296875 L 0.734375 -1.125 L 1.875 -2.296875 L 2.34375 -2.296875 L 1.390625 -1.265625 L 2.40625 0 L 1.90625 0 Z M 1.09375 -0.96875 "/></g></g></g><g fill="rgb(65.098572%, 65.098572%, 65.098572%)" fill-opacity="1"><g transform="translate(23.580065, 20.208521)"><g/></g></g><g fill="rgb(65.098572%, 65.098572%, 65.098572%)" fill-opacity="1"><g transform="translate(25.13982, 20.208521)"><g><path d="M 0.3125 -2.296875 L 1.3125 -2.296875 C 1.5625 -2.296875 1.78125 -2.25 1.96875 -2.15625 C 2.15625 -2.0625 2.300781 -1.925781 2.40625 -1.75 C 2.507812 -1.570312 2.5625 -1.375 2.5625 -1.15625 C 2.5625 -0.925781 2.507812 -0.722656 2.40625 -0.546875 C 2.300781 -0.367188 2.15625 -0.234375 1.96875 -0.140625 C 1.78125 -0.046875 1.5625 0 1.3125 0 L 0.3125 0 Z M 1.296875 -0.359375 C 1.460938 -0.359375 1.609375 -0.390625 1.734375 -0.453125 C 1.859375 -0.515625 1.957031 -0.601562 2.03125 -0.71875 C 2.101562 -0.84375 2.140625 -0.988281 2.140625 -1.15625 C 2.140625 -1.3125 2.101562 -1.445312 2.03125 -1.5625 C 1.957031 -1.6875 1.859375 -1.78125 1.734375 -1.84375 C 1.609375 -1.90625 1.460938 -1.9375 1.296875 -1.9375 L 0.734375 -1.9375 L 0.734375 -0.359375 Z M 1.296875 -0.359375 "/></g></g></g><g fill="rgb(65.098572%, 65.098572%, 65.098572%)" fill-opacity="1"><g transform="translate(28.500822, 20.208521)"><g><path d="M 2.03125 -0.359375 L 2.03125 0 L 0.3125 0 L 0.3125 -2.296875 L 1.984375 -2.296875 L 1.984375 -1.9375 L 0.734375 -1.9375 L 0.734375 -1.34375 L 1.84375 -1.34375 L 1.84375 -0.984375 L 0.734375 -0.984375 L 0.734375 -0.359375 Z M 2.03125 -0.359375 "/></g></g></g><g fill="rgb(65.098572%, 65.098572%, 65.098572%)" fill-opacity="1"><g transform="translate(31.350926, 20.208521)"><g><path d="M 2.40625 -2.296875 L 1.40625 0 L 0.984375 0 L -0.015625 -2.296875 L 0.453125 -2.296875 L 1.203125 -0.53125 L 1.984375 -2.296875 Z M 2.40625 -2.296875 "/></g></g></g><g fill="rgb(65.098572%, 65.098572%, 65.098572%)" fill-opacity="1"><g transform="translate(34.394255, 20.208521)"><g><path d="M 2.03125 -0.359375 L 2.03125 0 L 0.3125 0 L 0.3125 -2.296875 L 1.984375 -2.296875 L 1.984375 -1.9375 L 0.734375 -1.9375 L 0.734375 -1.34375 L 1.84375 -1.34375 L 1.84375 -0.984375 L 0.734375 -0.984375 L 0.734375 -0.359375 Z M 2.03125 -0.359375 "/></g></g></g><g fill="rgb(65.098572%, 65.098572%, 65.098572%)" fill-opacity="1"><g transform="translate(37.244358, 20.208521)"><g><path d="M 0.3125 -2.296875 L 0.734375 -2.296875 L 0.734375 -0.359375 L 1.9375 -0.359375 L 1.9375 0 L 0.3125 0 Z M 0.3125 -2.296875 "/></g></g></g><g fill="rgb(65.098572%, 65.098572%, 65.098572%)" fill-opacity="1"><g transform="translate(39.861936, 20.208521)"><g><path d="M 1.375 0.03125 C 1.144531 0.03125 0.9375 -0.015625 0.75 -0.109375 C 0.5625 -0.210938 0.410156 -0.351562 0.296875 -0.53125 C 0.191406 -0.71875 0.140625 -0.925781 0.140625 -1.15625 C 0.140625 -1.375 0.191406 -1.570312 0.296875 -1.75 C 0.410156 -1.9375 0.5625 -2.078125 0.75 -2.171875 C 0.9375 -2.273438 1.144531 -2.328125 1.375 -2.328125 C 1.613281 -2.328125 1.828125 -2.273438 2.015625 -2.171875 C 2.203125 -2.078125 2.347656 -1.9375 2.453125 -1.75 C 2.566406 -1.570312 2.625 -1.375 2.625 -1.15625 C 2.625 -0.925781 2.566406 -0.71875 2.453125 -0.53125 C 2.347656 -0.351562 2.203125 -0.210938 2.015625 -0.109375 C 1.828125 -0.015625 1.613281 0.03125 1.375 0.03125 Z M 1.375 -0.34375 C 1.53125 -0.34375 1.671875 -0.375 1.796875 -0.4375 C 1.921875 -0.507812 2.015625 -0.609375 2.078125 -0.734375 C 2.148438 -0.859375 2.1875 -1 2.1875 -1.15625 C 2.1875 -1.300781 2.148438 -1.4375 2.078125 -1.5625 C 2.015625 -1.6875 1.921875 -1.78125 1.796875 -1.84375 C 1.671875 -1.914062 1.53125 -1.953125 1.375 -1.953125 C 1.226562 -1.953125 1.09375 -1.914062 0.96875 -1.84375 C 0.84375 -1.78125 0.742188 -1.6875 0.671875 -1.5625 C 0.609375 -1.4375 0.578125 -1.300781 0.578125 -1.15625 C 0.578125 -1 0.609375 -0.859375 0.671875 -0.734375 C 0.742188 -0.609375 0.84375 -0.507812 0.96875 -0.4375 C 1.09375 -0.375 1.226562 -0.34375 1.375 -0.34375 Z M 1.375 -0.34375 "/></g></g></g><g fill="rgb(65.098572%, 65.098572%, 65.098572%)" fill-opacity="1"><g transform="translate(43.275338, 20.208521)"><g><path d="M 1.25 -2.296875 C 1.445312 -2.296875 1.617188 -2.257812 1.765625 -2.1875 C 1.921875 -2.125 2.035156 -2.03125 2.109375 -1.90625 C 2.191406 -1.789062 2.234375 -1.648438 2.234375 -1.484375 C 2.234375 -1.316406 2.191406 -1.171875 2.109375 -1.046875 C 2.035156 -0.921875 1.921875 -0.820312 1.765625 -0.75 C 1.617188 -0.6875 1.445312 -0.65625 1.25 -0.65625 L 0.734375 -0.65625 L 0.734375 0 L 0.3125 0 L 0.3125 -2.296875 Z M 1.234375 -1.03125 C 1.421875 -1.03125 1.5625 -1.066406 1.65625 -1.140625 C 1.75 -1.222656 1.796875 -1.335938 1.796875 -1.484375 C 1.796875 -1.628906 1.75 -1.738281 1.65625 -1.8125 C 1.5625 -1.894531 1.421875 -1.9375 1.234375 -1.9375 L 0.734375 -1.9375 L 0.734375 -1.03125 Z M 1.234375 -1.03125 "/></g></g></g><g fill="rgb(65.098572%, 65.098572%, 65.098572%)" fill-opacity="1"><g transform="translate(46.308839, 20.208521)"><g><path d="M 2.421875 0 L 2.421875 -1.515625 L 1.65625 -0.265625 L 1.46875 -0.265625 L 0.71875 -1.5 L 0.71875 0 L 0.3125 0 L 0.3125 -2.296875 L 0.65625 -2.296875 L 1.578125 -0.78125 L 2.46875 -2.296875 L 2.8125 -2.296875 L 2.828125 0 Z M 2.421875 0 "/></g></g></g><g fill="rgb(65.098572%, 65.098572%, 65.098572%)" fill-opacity="1"><g transform="translate(50.092315, 20.208521)"><g><path d="M 2.03125 -0.359375 L 2.03125 0 L 0.3125 0 L 0.3125 -2.296875 L 1.984375 -2.296875 L 1.984375 -1.9375 L 0.734375 -1.9375 L 0.734375 -1.34375 L 1.84375 -1.34375 L 1.84375 -0.984375 L 0.734375 -0.984375 L 0.734375 -0.359375 Z M 2.03125 -0.359375 "/></g></g></g><g fill="rgb(65.098572%, 65.098572%, 65.098572%)" fill-opacity="1"><g transform="translate(52.942417, 20.208521)"><g><path d="M 2.34375 -2.296875 L 2.34375 0 L 2 0 L 0.734375 -1.5625 L 0.734375 0 L 0.3125 0 L 0.3125 -2.296875 L 0.65625 -2.296875 L 1.921875 -0.734375 L 1.921875 -2.296875 Z M 2.34375 -2.296875 "/></g></g></g><g fill="rgb(65.098572%, 65.098572%, 65.098572%)" fill-opacity="1"><g transform="translate(56.251019, 20.208521)"><g><path d="M 0.78125 -1.9375 L 0.015625 -1.9375 L 0.015625 -2.296875 L 1.96875 -2.296875 L 1.96875 -1.9375 L 1.203125 -1.9375 L 1.203125 0 L 0.78125 0 Z M 0.78125 -1.9375 "/></g></g></g><g fill="rgb(65.098572%, 65.098572%, 65.098572%)" fill-opacity="1"><g transform="translate(58.878422, 20.208521)"><g><path d="M 1.015625 0.03125 C 0.835938 0.03125 0.664062 0.00390625 0.5 -0.046875 C 0.34375 -0.0976562 0.210938 -0.164062 0.109375 -0.25 L 0.265625 -0.578125 C 0.359375 -0.503906 0.472656 -0.441406 0.609375 -0.390625 C 0.742188 -0.347656 0.878906 -0.328125 1.015625 -0.328125 C 1.191406 -0.328125 1.320312 -0.351562 1.40625 -0.40625 C 1.488281 -0.457031 1.53125 -0.53125 1.53125 -0.625 C 1.53125 -0.6875 1.503906 -0.738281 1.453125 -0.78125 C 1.410156 -0.820312 1.351562 -0.851562 1.28125 -0.875 C 1.207031 -0.90625 1.109375 -0.9375 0.984375 -0.96875 C 0.804688 -1.007812 0.660156 -1.050781 0.546875 -1.09375 C 0.441406 -1.132812 0.351562 -1.195312 0.28125 -1.28125 C 0.207031 -1.375 0.171875 -1.492188 0.171875 -1.640625 C 0.171875 -1.765625 0.203125 -1.878906 0.265625 -1.984375 C 0.335938 -2.085938 0.441406 -2.171875 0.578125 -2.234375 C 0.710938 -2.296875 0.882812 -2.328125 1.09375 -2.328125 C 1.226562 -2.328125 1.363281 -2.304688 1.5 -2.265625 C 1.632812 -2.234375 1.753906 -2.1875 1.859375 -2.125 L 1.71875 -1.796875 C 1.613281 -1.859375 1.503906 -1.898438 1.390625 -1.921875 C 1.285156 -1.953125 1.1875 -1.96875 1.09375 -1.96875 C 0.914062 -1.96875 0.785156 -1.941406 0.703125 -1.890625 C 0.628906 -1.835938 0.59375 -1.757812 0.59375 -1.65625 C 0.59375 -1.59375 0.613281 -1.539062 0.65625 -1.5 C 0.707031 -1.457031 0.765625 -1.425781 0.828125 -1.40625 C 0.898438 -1.382812 1 -1.359375 1.125 -1.328125 C 1.300781 -1.285156 1.441406 -1.242188 1.546875 -1.203125 C 1.660156 -1.160156 1.753906 -1.09375 1.828125 -1 C 1.910156 -0.914062 1.953125 -0.800781 1.953125 -0.65625 C 1.953125 -0.519531 1.914062 -0.398438 1.84375 -0.296875 C 1.78125 -0.203125 1.675781 -0.125 1.53125 -0.0625 C 1.394531 0 1.222656 0.03125 1.015625 0.03125 Z M 1.015625 0.03125 "/></g></g></g><g fill="rgb(65.098572%, 65.098572%, 65.098572%)" fill-opacity="1"><g transform="translate(10.461193, 14.788451)"><g/></g></g><g fill="rgb(65.098572%, 65.098572%, 65.098572%)" fill-opacity="1"><g transform="translate(14.003473, 14.788451)"><g/></g></g><g fill="rgb(65.098572%, 65.098572%, 65.098572%)" fill-opacity="1"><g transform="translate(17.545753, 14.788451)"><g/></g></g><g fill="rgb(65.098572%, 65.098572%, 65.098572%)" fill-opacity="1"><g transform="translate(21.088033, 14.788451)"><g/></g></g><g fill="rgb(65.098572%, 65.098572%, 65.098572%)" fill-opacity="1"><g transform="translate(24.630312, 14.788451)"><g/></g></g><g fill="rgb(65.098572%, 65.098572%, 65.098572%)" fill-opacity="1"><g transform="translate(28.168399, 14.788451)"><g><path d="M 2.84375 0.09375 C 2.082031 0.09375 1.492188 -0.109375 1.078125 -0.515625 C 0.671875 -0.921875 0.46875 -1.5 0.46875 -2.25 L 0.46875 -5.046875 L 1.890625 -5.046875 L 1.890625 -2.296875 C 1.890625 -1.484375 2.207031 -1.078125 2.84375 -1.078125 C 3.476562 -1.078125 3.796875 -1.484375 3.796875 -2.296875 L 3.796875 -5.046875 L 5.21875 -5.046875 L 5.21875 -2.25 C 5.21875 -1.5 5.007812 -0.921875 4.59375 -0.515625 C 4.175781 -0.109375 3.59375 0.09375 2.84375 0.09375 Z M 2.84375 0.09375 "/></g></g></g><g fill="rgb(65.098572%, 65.098572%, 65.098572%)" fill-opacity="1"><g transform="translate(35.281833, 14.788451)"><g><path d="M 5.3125 -5.046875 L 5.3125 0 L 4.140625 0 L 1.90625 -2.6875 L 1.90625 0 L 0.5 0 L 0.5 -5.046875 L 1.6875 -5.046875 L 3.90625 -2.359375 L 3.90625 -5.046875 Z M 5.3125 -5.046875 "/></g></g></g><g fill="rgb(65.098572%, 65.098572%, 65.098572%)" fill-opacity="1"><g transform="translate(42.539558, 14.788451)"><g><path d="M 1.578125 -3.921875 L 0.03125 -3.921875 L 0.03125 -5.046875 L 4.5625 -5.046875 L 4.5625 -3.921875 L 3.015625 -3.921875 L 3.015625 0 L 1.578125 0 Z M 1.578125 -3.921875 "/></g></g></g><g fill="rgb(65.098572%, 65.098572%, 65.098572%)" fill-opacity="1"><g transform="translate(48.56361, 14.788451)"><g/></g></g><g fill="rgb(65.098572%, 65.098572%, 65.098572%)" fill-opacity="1"><g transform="translate(52.10589, 14.788451)"><g><path d="M 2.84375 0.09375 C 2.082031 0.09375 1.492188 -0.109375 1.078125 -0.515625 C 0.671875 -0.921875 0.46875 -1.5 0.46875 -2.25 L 0.46875 -5.046875 L 1.890625 -5.046875 L 1.890625 -2.296875 C 1.890625 -1.484375 2.207031 -1.078125 2.84375 -1.078125 C 3.476562 -1.078125 3.796875 -1.484375 3.796875 -2.296875 L 3.796875 -5.046875 L 5.21875 -5.046875 L 5.21875 -2.25 C 5.21875 -1.5 5.007812 -0.921875 4.59375 -0.515625 C 4.175781 -0.109375 3.59375 0.09375 2.84375 0.09375 Z M 2.84375 0.09375 "/></g></g></g><g fill="rgb(65.098572%, 65.098572%, 65.098572%)" fill-opacity="1"><g transform="translate(59.219325, 14.788451)"><g><path d="M 2.8125 -5.046875 C 3.269531 -5.046875 3.664062 -4.96875 4 -4.8125 C 4.34375 -4.664062 4.601562 -4.453125 4.78125 -4.171875 C 4.96875 -3.890625 5.0625 -3.5625 5.0625 -3.1875 C 5.0625 -2.800781 4.96875 -2.46875 4.78125 -2.1875 C 4.601562 -1.914062 4.34375 -1.703125 4 -1.546875 C 3.664062 -1.398438 3.269531 -1.328125 2.8125 -1.328125 L 1.9375 -1.328125 L 1.9375 0 L 0.5 0 L 0.5 -5.046875 Z M 2.734375 -2.453125 C 3.023438 -2.453125 3.242188 -2.515625 3.390625 -2.640625 C 3.535156 -2.765625 3.609375 -2.945312 3.609375 -3.1875 C 3.609375 -3.414062 3.535156 -3.59375 3.390625 -3.71875 C 3.242188 -3.851562 3.023438 -3.921875 2.734375 -3.921875 L 1.9375 -3.921875 L 1.9375 -2.453125 Z M 2.734375 -2.453125 "/></g></g></g><g fill="rgb(65.098572%, 65.098572%, 65.098572%)" fill-opacity="1"><g transform="translate(37.827771, 20.127701)"><g/></g></g></svg>